<svg width="54" height="54" viewBox="0 0 54 54" fill="none" xmlns="http://www.w3.org/2000/svg">
<path d="M0 0V53.3333H53.3333V0H0ZM17.9431 22.5689L21.3458 13.888H27.1964L21.2587 26.4231L27.3351 39.1662H21.4151L17.9431 30.3289L14.4889 39.1662H8.56889L14.6453 26.4231L8.68978 13.888H14.5404L17.9431 22.5689ZM28.5671 29.2018C28.5671 26.1227 29.088 23.8258 30.1298 22.3093C31.1716 20.7929 32.6862 20.0356 34.6791 20.0356C36.1244 20.0356 37.3298 20.6613 38.2898 21.9111V12.5013H43.2373V39.168H38.7751L38.5493 37.2587C37.5431 38.7644 36.2453 39.5164 34.6596 39.5164C32.6933 39.5164 31.1911 38.7644 30.1547 37.2587C29.1182 35.7529 28.5884 33.5431 28.5653 30.6276L28.5671 29.2018ZM33.4987 30.4338C33.4987 32.2862 33.6942 33.5804 34.0889 34.3147C34.4835 35.0489 35.1484 35.4169 36.0853 35.4169C37.0578 35.4169 37.792 34.9831 38.2898 34.1156V25.5396C37.8044 24.6133 37.0738 24.1511 36.1031 24.1511C35.2 24.1511 34.5404 24.5156 34.1244 25.2444C33.7084 25.9733 33.4987 27.2711 33.4987 29.1342V30.4338Z" fill="#0ABEDE"/>
</svg>
