<svg width="65" height="69" viewBox="0 0 65 69" fill="none" xmlns="http://www.w3.org/2000/svg">
<path d="M8.5 45.2303C8.5 47.249 6.708 48.8874 4.5 48.8874C2.292 48.8874 0.5 47.249 0.5 45.2303V28.7731C0.5 26.7544 2.292 25.116 4.5 25.116C6.708 25.116 8.5 26.7544 8.5 28.7731V45.2303Z" fill="#0ABEDE"/>
<path d="M64.5 45.2303C64.5 47.249 62.708 48.8874 60.5 48.8874C58.292 48.8874 56.5 47.249 56.5 45.2303V28.7731C56.5 26.7544 58.292 25.116 60.5 25.116C62.708 25.116 64.5 26.7544 64.5 28.7731V45.2303Z" fill="#0ABEDE"/>
<path d="M28.5 65.3428C28.5 67.3615 26.708 68.9999 24.5 68.9999C22.292 68.9999 20.5 67.3615 20.5 65.3428V48.8857C20.5 46.8669 22.292 45.2285 24.5 45.2285C26.708 45.2285 28.5 46.8669 28.5 48.8857V65.3428Z" fill="#0ABEDE"/>
<path d="M44.5 65.3428C44.5 67.3615 42.708 68.9999 40.5 68.9999C38.292 68.9999 36.5 67.3615 36.5 65.3428V48.8857C36.5 46.8669 38.292 45.2285 40.5 45.2285C42.708 45.2285 44.5 46.8669 44.5 48.8857V65.3428Z" fill="#0ABEDE"/>
<path d="M12.5 25.116V52.5427C12.5 54.5615 14.292 56.1999 16.5 56.1999H48.5C50.708 56.1999 52.5 54.5615 52.5 52.5427V25.116H12.5Z" fill="#0ABEDE"/>
<path d="M32.5 6.82843C20.5 6.82843 13.19 13.4936 12.5 21.457H52.5C51.808 13.4936 44.5 6.82843 32.5 6.82843ZM24.5 17.0648C23.396 17.0648 22.5 16.2456 22.5 15.2362C22.5 14.2268 23.396 13.4076 24.5 13.4076C25.604 13.4076 26.5 14.2268 26.5 15.2362C26.5 16.2456 25.604 17.0648 24.5 17.0648ZM40.5 17.0648C39.394 17.0648 38.5 16.2456 38.5 15.2362C38.5 14.2268 39.394 13.4076 40.5 13.4076C41.606 13.4076 42.5 14.2268 42.5 15.2362C42.5 16.2456 41.606 17.0648 40.5 17.0648Z" fill="#0ABEDE"/>
<path d="M44.5 5L41.168 9.5696L44.5 5Z" fill="#0ABEDE"/>
<path d="M44.5 5L41.168 9.5696" stroke="#0ABEDE" stroke-width="9.76929" stroke-linecap="round"/>
<path d="M20.5 5L23.166 8.80709L20.5 5Z" fill="#0ABEDE"/>
<path d="M20.5 5L23.166 8.80709" stroke="#0ABEDE" stroke-width="9.76929" stroke-linecap="round"/>
</svg>
