<svg width="65" height="64" viewBox="0 0 65 64" fill="none" xmlns="http://www.w3.org/2000/svg">
<path d="M32.3978 1.55371e-05C32.238 0.000711219 32.0768 0.0260166 31.9233 0.0761057L1.477 10.2124C0.831179 10.4267 0.42672 11.0437 0.511085 11.6934L5.32363 49.4314C5.38036 49.8781 5.65625 50.2716 6.0708 50.4858L31.7415 63.8315C31.9568 63.9442 32.1962 64 32.4347 64C32.6747 64 32.9168 63.9429 33.1336 63.8288L58.935 50.3011C59.3452 50.0854 59.624 49.6932 59.6793 49.2494L64.489 11.5141C64.5734 10.8615 64.1648 10.2391 63.5117 10.0276L32.8694 0.0706707C32.7166 0.021973 32.5576 -0.000680144 32.3978 1.55371e-05ZM32.5 6.95411L51.4093 45.9123H44.9547L40.9092 37.575H24.0909L20.0454 45.9123H13.5908L32.5 6.95411ZM32.5 20.1721L26.7983 31.9986H38.2018L32.5 20.1721Z" fill="#0ABEDE"/>
</svg>
