<svg width="26" height="26" viewBox="0 0 26 26" fill="none" xmlns="http://www.w3.org/2000/svg">
<path d="M5.94076 20.4066C5.7365 20.3334 5.52318 20.2976 5.3089 20.3007C4.72766 20.3007 4.14267 20.5315 3.97393 20.8619C3.58768 21.62 3.11332 22.5158 3.11332 22.5158C2.94249 22.9064 2.90911 23.3555 3.01989 23.7728C3.13067 24.1901 3.37738 24.5444 3.71029 24.7644C4.04321 24.9844 4.43758 25.0536 4.81391 24.9582C5.19024 24.8628 5.52055 24.6098 5.73827 24.2502C5.73827 24.2502 6.597 22.556 7.10324 21.6009C7.20074 21.4336 6.70387 20.6798 5.94076 20.4066ZM5.09703 23.8224C5.02751 23.9524 4.92926 24.0599 4.81192 24.1341C4.69458 24.2084 4.56217 24.2469 4.42767 24.2459C4.29215 24.2462 4.15897 24.2061 4.04149 24.1298C3.924 24.0536 3.82635 23.9437 3.75834 23.8113C3.69033 23.6789 3.65435 23.5287 3.65402 23.3756C3.65368 23.2226 3.689 23.0721 3.75643 22.9393C3.75643 22.9393 4.22142 22.0647 4.60204 21.3172C4.82042 21.1907 5.0636 21.1288 5.3089 21.1372C5.44416 21.1343 5.57897 21.1557 5.70827 21.2007C5.91037 21.2771 6.09573 21.4013 6.25201 21.5649C5.75139 22.5348 5.10265 23.8118 5.09703 23.8224ZM13.75 16.0208H10.1876L16.3749 3.52648C16.4787 3.3401 16.548 3.13185 16.5784 2.91436C16.6088 2.69687 16.5998 2.47466 16.552 2.2612C16.5041 2.04775 16.4184 1.84749 16.3 1.67258C16.1815 1.49766 16.0329 1.35172 15.8631 1.24361C15.6203 1.08294 15.3438 0.99883 15.0625 1.00008C14.7984 0.997395 14.5384 1.0728 14.3081 1.2188C14.0779 1.36481 13.8854 1.57632 13.75 1.83233L13 3.31471L12.25 1.83233C12.1147 1.57618 11.9223 1.36454 11.692 1.21852C11.4618 1.0725 11.2016 0.997183 10.9375 1.00008C10.6568 0.999313 10.381 1.0834 10.1388 1.24361C9.96882 1.35154 9.82 1.49735 9.7014 1.67218C9.58279 1.84702 9.49686 2.04724 9.44882 2.26071C9.40078 2.47418 9.39163 2.69644 9.42193 2.91403C9.45223 3.13161 9.52134 3.33997 9.62507 3.52648L11.3125 6.70301L6.43763 16.0208H2.5002C2.09422 16.0325 1.70877 16.2249 1.42782 16.5561C1.14686 16.8873 0.993176 17.3305 1.00023 17.7891C1.00023 18.74 1.65835 19.4091 2.5002 19.4091H15.8125C16.4631 17.9035 15.1056 16.0208 13.75 16.0208ZM2.5002 18.5621C2.12521 18.5621 1.75022 18.3228 1.75022 17.7891C1.74452 17.5555 1.81968 17.3286 1.95971 17.1566C2.09975 16.9846 2.29364 16.8811 2.5002 16.8679H6.86512L7.08262 16.4444L11.9575 7.12655L12.1863 6.70301L11.9556 6.27948L10.2682 3.10294C10.1628 2.91397 10.1278 2.68564 10.1707 2.46764C10.1948 2.36489 10.2372 2.26874 10.2952 2.18502C10.3532 2.1013 10.4257 2.03174 10.5082 1.98057C10.6365 1.89724 10.782 1.85342 10.93 1.85351C11.0632 1.84735 11.1954 1.88139 11.3131 1.95211C11.4307 2.02283 11.5295 2.12768 11.5994 2.25587L12.3494 3.73825L13 5.02157L13.6506 3.73825L14.4006 2.25587C14.4691 2.12778 14.5665 2.02248 14.6827 1.95069C14.799 1.8789 14.93 1.84317 15.0625 1.84716C15.2093 1.84711 15.3536 1.89095 15.4806 1.97422C15.5649 2.02522 15.6389 2.0954 15.6979 2.18033C15.757 2.26525 15.7998 2.36308 15.8237 2.46764C15.8666 2.68564 15.8316 2.91397 15.7262 3.10294L9.53882 15.5973L8.91446 16.8679H13.75C14.1925 16.8679 14.7081 17.2406 15.0043 17.7764C15.1393 18.0115 15.2175 18.2823 15.2312 18.5621H2.5002Z" fill="white" stroke="white" stroke-width="1.5"/>
<path d="M23.4995 16.0209H19.562L15.3734 8.02026C14.4996 9.14052 13.4122 10.8855 15.0621 14.115C16.3577 16.6562 20.2539 24.2502 20.2539 24.2502C20.4716 24.6098 20.8019 24.8628 21.1783 24.9582C21.5546 25.0537 21.949 24.9844 22.2819 24.7644C22.6148 24.5445 22.8615 24.1901 22.9723 23.7729C23.0831 23.3556 23.0497 22.9064 22.8789 22.5158L21.2495 19.4092H23.4995C24.3413 19.4092 24.9994 18.74 24.9994 17.7892C25.0065 17.3305 24.8528 16.8874 24.5719 16.5561C24.2909 16.2249 23.9054 16.0326 23.4995 16.0209ZM23.4995 18.5621H19.937L20.612 19.8327L22.247 22.9309C22.2985 23.0301 22.3321 23.1398 22.346 23.2537C22.3598 23.3677 22.3536 23.4836 22.3276 23.5948C22.3016 23.706 22.2565 23.8103 22.1947 23.9017C22.1329 23.9931 22.0557 24.0698 21.9676 24.1274C21.85 24.2054 21.7159 24.2464 21.5795 24.246C21.4454 24.2464 21.3134 24.2076 21.1964 24.1334C21.0795 24.0591 20.9815 23.952 20.912 23.8224C20.8726 23.7462 16.999 16.1988 15.7184 13.6893C14.7284 11.7516 14.8559 10.5128 15.3152 9.55559L18.9171 16.4444L19.1345 16.868H23.4995C23.706 16.8811 23.8999 16.9847 24.04 17.1567C24.18 17.3287 24.2551 17.5556 24.2495 17.7892C24.2495 18.3228 23.8745 18.5621 23.4995 18.5621Z" fill="white" stroke="white" stroke-width="1.5"/>
</svg>
