<svg width="20" height="23" viewBox="0 0 20 23" fill="none" xmlns="http://www.w3.org/2000/svg">
<circle cx="10" cy="13" r="9" stroke="#1A405C" stroke-width="2"/>
<path d="M9.816 18.24C8.93067 18.24 8.17867 18.0427 7.56 17.648C6.94133 17.2533 6.46667 16.712 6.136 16.024C5.81067 15.336 5.64533 14.5547 5.64 13.68C5.64533 12.7893 5.816 12.0027 6.152 11.32C6.488 10.632 6.968 10.0933 7.592 9.704C8.216 9.31467 8.96533 9.12 9.84 9.12C10.784 9.12 11.5893 9.35467 12.256 9.824C12.928 10.2933 13.3707 10.936 13.584 11.752L11.92 12.232C11.7547 11.7467 11.4827 11.3707 11.104 11.104C10.7307 10.832 10.3013 10.696 9.816 10.696C9.26667 10.696 8.816 10.8267 8.464 11.088C8.112 11.344 7.85067 11.696 7.68 12.144C7.50933 12.592 7.42133 13.104 7.416 13.68C7.42133 14.5707 7.624 15.2907 8.024 15.84C8.42933 16.3893 9.02667 16.664 9.816 16.664C10.3547 16.664 10.7893 16.5413 11.12 16.296C11.456 16.0453 11.712 15.688 11.888 15.224L13.584 15.624C13.3013 16.4667 12.8347 17.1147 12.184 17.568C11.5333 18.016 10.744 18.24 9.816 18.24Z" fill="#1A405C"/>
</svg>
