<svg width="713" height="553" viewBox="0 0 713 553" fill="none" xmlns="http://www.w3.org/2000/svg">
<path opacity="0.5" d="M475.264 115.419L475.455 115.497L523.111 134.808L523.111 173.576L522.92 173.654L475.264 192.965L475.073 192.887L427.418 173.576L427.418 134.808L427.609 134.73L475.264 115.419ZM522.363 135.11L475.264 116.033L428.166 135.11L428.166 173.263L475.264 192.34L522.363 173.263L522.363 135.11Z" fill="#1A405C"/>
<path opacity="0.5" d="M48.0374 19.2537L48.2284 19.3319L95.8838 38.6431L95.8838 77.4106L95.6928 77.4888L48.0374 96.8L47.8464 96.7218L0.191042 77.4106L0.191047 38.6431L0.382042 38.5649L48.0374 19.2537ZM95.1357 38.9446L48.0374 19.868L0.939148 38.9446L0.939143 77.0979L48.0374 96.1745L95.1357 77.0979L95.1357 38.9446Z" fill="#1A405C"/>
<path opacity="0.5" d="M48.0374 57.7197L48.2284 57.7979L95.8838 77.1091L95.8838 115.877L95.6928 115.955L48.0374 135.266L47.8464 135.188L0.191042 115.877L0.191047 77.1091L0.382042 77.0309L48.0374 57.7197ZM95.1357 77.4107L48.0374 58.334L0.939148 77.4107L0.939143 115.564L48.0374 134.641L95.1357 115.564L95.1357 77.4107Z" fill="#1A405C"/>
<path opacity="0.5" d="M48.0374 96.1857L48.2284 96.2639L95.8838 115.575L95.8838 154.343L95.6928 154.421L48.0374 173.732L47.8464 173.654L0.191042 154.343L0.191047 115.575L0.382042 115.497L48.0374 96.1857ZM95.1357 115.877L48.0374 96.8L0.939148 115.877L0.939143 154.03L48.0374 173.107L95.1357 154.03L95.1357 115.877Z" fill="#1A405C"/>
<path opacity="0.5" d="M48.0374 211.573L48.2284 211.651L95.8838 230.962L95.8838 269.73L95.6928 269.808L48.0374 289.119L47.8464 289.041L0.191042 269.73L0.191047 230.962L0.382042 230.884L48.0374 211.573ZM95.1357 231.264L48.0374 212.187L0.939148 231.264L0.939143 269.417L48.0374 288.493L95.1357 269.417L95.1357 231.264Z" fill="#1A405C"/>
<path opacity="0.5" d="M48.0374 288.493L48.2284 288.572L95.8838 307.883L95.8838 346.65L95.6928 346.729L48.0374 366.04L0.191042 346.65L0.191047 307.883L0.382042 307.805L48.0374 288.493ZM95.1357 308.184L48.0374 289.108L0.939148 308.184L0.939143 346.338L48.0374 365.414L95.1357 346.338L95.1357 308.184Z" fill="#1A405C"/>
<path opacity="0.5" d="M48.0374 403.892L95.8838 423.281L95.8838 462.048L95.6928 462.127L48.0374 481.438L0.191042 462.048L0.191047 423.281L0.382042 423.203L48.0374 403.892ZM95.1357 423.582L48.0374 404.506L0.939148 423.582L0.939143 461.736L48.0374 480.812L95.1357 461.736L95.1357 423.582Z" fill="#1A405C"/>
<path opacity="0.5" d="M48.0374 442.346L95.8838 461.736L95.8838 500.503L95.6928 500.581L48.0374 519.893L0.191042 500.503L0.191047 461.736L0.382042 461.658L48.0374 442.346ZM95.1357 462.037L48.0374 442.961L0.939148 462.037L0.939143 500.191L48.0374 519.267L95.1357 500.191L95.1357 462.037Z" fill="#1A405C"/>
<path opacity="0.5" d="M95.5174 0.0207414L95.7084 0.0988664L143.364 19.4101L143.364 58.1777L143.173 58.2559L95.5174 77.567L95.3264 77.4889L47.671 58.1777L47.671 19.4101L47.862 19.3319L95.5174 0.0207414ZM142.616 19.7117L95.5174 0.635022L48.4191 19.7117L48.4191 57.8649L95.5174 76.9416L142.616 57.8649L142.616 19.7117Z" fill="#1A405C"/>
<path opacity="0.5" d="M95.5174 38.4866L95.7084 38.5648L143.364 57.876L143.364 96.6436L143.173 96.7218L95.5174 116.033L95.3264 115.955L47.671 96.6436L47.671 57.876L47.862 57.7978L95.5174 38.4866ZM142.616 58.1776L95.5174 39.101L48.4191 58.1776L48.4191 96.3309L95.5174 115.407L142.616 96.3309L142.616 58.1776Z" fill="#1A405C"/>
<path opacity="0.5" d="M95.5174 153.874L95.7084 153.952L143.364 173.263L143.364 212.031L143.173 212.109L95.5174 231.42L95.3264 231.342L47.671 212.031L47.671 173.263L47.862 173.185L95.5174 153.874ZM142.616 173.564L95.5174 154.488L48.4191 173.564L48.4191 211.718L95.5174 230.794L142.616 211.718L142.616 173.564Z" fill="#1A405C"/>
<path opacity="0.5" d="M95.5174 192.34L95.7084 192.418L143.364 211.729L143.364 250.497L143.173 250.575L95.5174 269.886L95.3264 269.808L47.671 250.497L47.671 211.729L47.862 211.651L95.5174 192.34ZM142.616 212.03L95.5174 192.954L48.4191 212.03L48.4191 250.184L95.5174 269.26L142.616 250.184L142.616 212.03Z" fill="#1A405C"/>
<path opacity="0.5" d="M95.5174 346.192L143.364 365.582L143.364 404.349L143.173 404.428L95.5174 423.739L47.671 404.349L47.671 365.582L47.862 365.504L95.5174 346.192ZM142.616 365.883L95.5174 346.807L48.4191 365.883L48.4191 404.037L95.5174 423.113L142.616 404.037L142.616 365.883Z" fill="#1A405C"/>
<path opacity="0.5" d="M95.5174 384.659L143.364 404.048L143.364 442.815L143.173 442.894L95.5174 462.205L47.671 442.815L47.671 404.048L47.862 403.97L95.5174 384.659ZM142.616 404.349L95.5174 385.273L48.4191 404.349L48.4191 442.503L95.5174 461.579L142.616 442.503L142.616 404.349Z" fill="#1A405C"/>
<path opacity="0.5" d="M142.982 19.2537L143.173 19.3319L190.828 38.6431L190.828 77.4106L190.637 77.4888L142.982 96.8L142.791 96.7218L95.1354 77.4106L95.1354 38.6431L95.3264 38.5649L142.982 19.2537ZM190.08 38.9446L142.982 19.868L95.8835 38.9446L95.8835 77.0979L142.982 96.1745L190.08 77.0979L190.08 38.9446Z" fill="#1A405C"/>
<path opacity="0.5" d="M142.982 134.652L143.173 134.73L190.828 154.041L190.828 192.809L190.637 192.887L142.982 212.198L142.791 212.12L95.1354 192.809L95.1354 154.041L95.3264 153.963L142.982 134.652ZM190.08 154.343L142.982 135.266L95.8835 154.343L95.8835 192.496L142.982 211.573L190.08 192.496L190.08 154.343Z" fill="#1A405C"/>
<path opacity="0.5" d="M142.982 211.573L143.173 211.651L190.828 230.962L190.828 269.73L190.637 269.808L142.982 289.119L142.791 289.041L95.1354 269.73L95.1354 230.962L95.3264 230.884L142.982 211.573ZM190.08 231.264L142.982 212.187L95.8835 231.264L95.8835 269.417L142.982 288.493L190.08 269.417L190.08 231.264Z" fill="#1A405C"/>
<g opacity="0.5">
<path d="M143 481.097L191 498.852L191 534.353L190.808 534.424L143 552.108L95 534.353L95 498.852L95.1916 498.781L143 481.097ZM190.25 499.128L143 481.659L95.7505 499.128L95.7505 534.066L143 551.535L190.25 534.066L190.25 499.128Z" fill="#1A405C"/>
</g>
<path opacity="0.5" d="M190.446 38.4868L190.637 38.565L238.292 57.8762L238.292 96.6438L238.101 96.722L190.446 116.033L190.255 115.955L142.6 96.6438L142.6 57.8762L142.791 57.798L190.446 38.4868ZM237.544 58.1778L190.446 39.1011L143.348 58.1778L143.348 96.3311L190.446 115.408L237.544 96.3311L237.544 58.1778Z" fill="#1A405C"/>
<path opacity="0.5" d="M190.446 76.9528L190.637 77.031L238.292 96.3422L238.292 135.11L238.101 135.188L190.446 154.499L190.255 154.421L142.6 135.11L142.6 96.3422L142.791 96.264L190.446 76.9528ZM237.544 96.6437L190.446 77.5671L143.348 96.6437L143.348 134.797L190.446 153.874L237.544 134.797L237.544 96.6437Z" fill="#1A405C"/>
<path opacity="0.5" d="M190.446 192.34L190.637 192.418L238.292 211.729L238.292 250.497L238.101 250.575L190.446 269.886L190.255 269.808L142.6 250.497L142.6 211.729L142.791 211.651L190.446 192.34ZM237.544 212.031L190.446 192.954L143.348 212.031L143.348 250.184L190.446 269.26L237.544 250.184L237.544 212.031Z" fill="#1A405C"/>
<path opacity="0.5" d="M190.446 230.806L190.637 230.884L238.292 250.195L238.292 288.963L238.101 289.041L190.446 308.352L142.6 288.963L142.6 250.195L142.791 250.117L190.446 230.806ZM237.544 250.497L190.446 231.42L143.348 250.497L143.348 288.65L190.446 307.726L237.544 288.65L237.544 250.497Z" fill="#1A405C"/>
<path opacity="0.5" d="M190.446 346.192L238.292 365.582L238.292 404.349L238.101 404.428L190.446 423.739L142.6 404.349L142.6 365.582L142.791 365.504L190.446 346.192ZM237.544 365.883L190.446 346.807L143.348 365.883L143.348 404.037L190.446 423.113L237.544 404.037L237.544 365.883Z" fill="#1A405C"/>
<path opacity="0.5" d="M332.855 19.2537L333.046 19.3319L380.702 38.6431L380.702 77.4106L380.511 77.4888L332.855 96.8L332.664 96.7218L285.009 77.4106L285.009 38.6431L285.2 38.5649L332.855 19.2537ZM379.954 38.9446L332.855 19.868L285.757 38.9446L285.757 77.0979L332.855 96.1745L379.954 77.0979L379.954 38.9446Z" fill="#1A405C"/>
<path opacity="0.5" d="M332.855 134.652L333.046 134.73L380.702 154.041L380.702 192.809L380.511 192.887L332.855 212.198L332.664 212.12L285.009 192.809L285.009 154.041L285.2 153.963L332.855 134.652ZM379.954 154.343L332.855 135.266L285.757 154.343L285.757 192.496L332.855 211.573L379.954 192.496L379.954 154.343Z" fill="#1A405C"/>
<path opacity="0.5" d="M332.855 288.493L333.046 288.572L380.702 307.883L380.702 346.65L380.511 346.729L332.855 366.04L285.009 346.65L285.009 307.883L285.2 307.805L332.855 288.493ZM379.954 308.184L332.855 289.108L285.757 308.184L285.757 346.338L332.855 365.414L379.954 346.338L379.954 308.184Z" fill="#1A405C"/>
<path opacity="0.5" d="M380.336 0.0208024L380.527 0.0989274L428.182 19.4102L428.182 58.1777L427.991 58.2559L380.336 77.5671L380.145 77.4889L332.489 58.1777L332.489 19.4102L332.68 19.332L380.336 0.0208024ZM427.434 19.7117L380.336 0.635083L333.237 19.7117L333.237 57.865L380.336 76.9416L427.434 57.865L427.434 19.7117Z" fill="#1A405C"/>
<path opacity="0.5" d="M380.336 76.9528L380.527 77.031L428.182 96.3422L428.182 135.11L427.991 135.188L380.336 154.499L380.145 154.421L332.489 135.11L332.489 96.3422L332.68 96.264L380.336 76.9528ZM427.434 96.6437L380.336 77.5671L333.237 96.6437L333.237 134.797L380.336 153.874L427.434 134.797L427.434 96.6437Z" fill="#1A405C"/>
<path opacity="0.5" d="M380.336 153.874L380.527 153.952L428.182 173.263L428.182 212.031L427.991 212.109L380.336 231.42L380.145 231.342L332.489 212.031L332.489 173.263L332.68 173.185L380.336 153.874ZM427.434 173.565L380.336 154.488L333.237 173.565L333.237 211.718L380.336 230.794L427.434 211.718L427.434 173.565Z" fill="#1A405C"/>
<path opacity="0.5" d="M380.336 192.34L380.527 192.418L428.182 211.729L428.182 250.497L427.991 250.575L380.336 269.886L380.145 269.808L332.489 250.497L332.489 211.729L332.68 211.651L380.336 192.34ZM427.434 212.031L380.336 192.954L333.237 212.031L333.237 250.184L380.336 269.26L427.434 250.184L427.434 212.031Z" fill="#1A405C"/>
<path opacity="0.5" d="M380.336 307.727L428.182 327.116L428.182 365.883L427.991 365.962L380.336 385.273L332.489 365.883L332.489 327.116L332.68 327.038L380.336 307.727ZM427.434 327.417L380.336 308.341L333.237 327.417L333.237 365.571L380.336 384.647L427.434 365.571L427.434 327.417Z" fill="#1A405C"/>
<path opacity="0.5" d="M427.8 19.2537L427.991 19.3319L475.646 38.6431L475.646 77.4106L475.455 77.4888L427.8 96.8L427.609 96.7218L379.954 77.4106L379.954 38.6431L380.145 38.5649L427.8 19.2537ZM474.898 38.9446L427.8 19.868L380.702 38.9446L380.702 77.0979L427.8 96.1745L474.898 77.0979L474.898 38.9446Z" fill="#1A405C"/>
<path opacity="0.5" d="M427.8 211.573L427.991 211.651L475.646 230.962L475.646 269.73L475.455 269.808L427.8 289.119L427.609 289.041L379.954 269.73L379.954 230.962L380.145 230.884L427.8 211.573ZM474.898 231.264L427.8 212.187L380.702 231.264L380.702 269.417L427.8 288.493L474.898 269.417L474.898 231.264Z" fill="#1A405C"/>
<path opacity="0.5" d="M475.264 38.4868L475.455 38.565L523.111 57.8762L523.111 96.6437L522.92 96.7219L475.264 116.033L475.073 115.955L427.418 96.6437L427.418 57.8762L427.609 57.798L475.264 38.4868ZM522.363 58.1777L475.264 39.1011L428.166 58.1777L428.166 96.331L475.264 115.408L522.363 96.331L522.363 58.1777Z" fill="#1A405C"/>
<path opacity="0.5" d="M522.744 96.1857L522.935 96.2639L570.591 115.575L570.591 154.343L570.4 154.421L522.744 173.732L522.553 173.654L474.898 154.343L474.898 115.575L475.089 115.497L522.744 96.1857ZM569.843 115.877L522.744 96.8L475.646 115.877L475.646 154.03L522.744 173.107L569.843 154.03L569.843 115.877Z" fill="#1A405C"/>
<path opacity="0.5" d="M665.154 38.4868L665.345 38.565L713 57.8762L713 96.6437L712.809 96.7219L665.154 116.033L664.963 115.955L617.307 96.6437L617.307 57.8762L617.498 57.798L665.154 38.4868ZM712.236 58.1777L665.138 39.1011L618.039 58.1777L618.039 96.331L665.138 115.408L712.236 96.331L712.236 58.1777Z" fill="#1A405C"/>
<path opacity="0.5" d="M237.927 19.2537L238.118 19.3319L285.773 38.6431L285.773 77.4107L285.582 77.4889L237.927 96.8L237.736 96.7219L190.08 77.4107L190.08 38.6431L190.271 38.5649L237.927 19.2537ZM285.025 38.9447L237.927 19.868L190.828 38.9447L190.828 77.098L237.927 96.1746L285.025 77.098L285.025 38.9447Z" fill="#1A405C"/>
<path opacity="0.5" d="M237.927 57.7198L238.118 57.798L285.773 77.1092L285.773 115.877L285.582 115.955L237.927 135.266L237.736 135.188L190.08 115.877L190.08 77.1092L190.271 77.031L237.927 57.7198ZM285.025 77.4107L237.927 58.3341L190.828 77.4107L190.828 115.564L237.927 134.641L285.025 115.564L285.025 77.4107Z" fill="#1A405C"/>
<path opacity="0.5" d="M237.927 96.1857L238.118 96.2639L285.773 115.575L285.773 154.343L285.582 154.421L237.927 173.732L237.736 173.654L190.08 154.343L190.08 115.575L190.271 115.497L237.927 96.1857ZM285.025 115.877L237.927 96.8L190.828 115.877L190.828 154.03L237.927 173.107L285.025 154.03L285.025 115.877Z" fill="#1A405C"/>
<path opacity="0.5" d="M237.927 211.573L238.118 211.651L285.773 230.962L285.773 269.73L285.582 269.808L237.927 289.119L237.736 289.041L190.08 269.73L190.08 230.962L190.271 230.884L237.927 211.573ZM285.025 231.264L237.927 212.187L190.828 231.264L190.828 269.417L237.927 288.493L285.025 269.417L285.025 231.264Z" fill="#1A405C"/>
<path opacity="0.5" d="M237.927 403.892L285.773 423.281L285.773 462.048L285.582 462.127L237.927 481.438L190.08 462.048L190.08 423.281L190.271 423.203L237.927 403.892ZM285.025 423.582L237.927 404.506L190.828 423.582L190.828 461.736L237.927 480.812L285.025 461.736L285.025 423.582Z" fill="#1A405C"/>
<path opacity="0.5" d="M237.927 326.959L285.773 346.349L285.773 385.116L285.582 385.195L237.927 404.506L190.08 385.116L190.08 346.349L190.271 346.271L237.927 326.959ZM285.025 346.65L237.927 327.574L190.828 346.65L190.828 384.804L237.927 403.88L285.025 384.804L285.025 346.65Z" fill="#1A405C"/>
<path opacity="0.5" d="M380.336 230.806L380.527 230.884L428.182 250.195L428.182 288.963L427.991 289.041L380.336 308.352L332.489 288.963L332.489 250.195L332.68 250.117L380.336 230.806ZM427.434 250.497L380.336 231.42L333.237 250.497L333.237 288.65L380.336 307.726L427.434 288.65L427.434 250.497Z" fill="#1A405C"/>
<path d="M522.745 172.649L523.031 172.76L570.782 192.105L570.782 231.029L570.496 231.141L522.745 250.485L522.458 250.374L474.707 231.029L474.707 192.105L474.994 191.993L522.745 172.649ZM569.652 192.574L522.745 173.576L475.838 192.574L475.838 230.571L522.745 249.57L569.652 230.571L569.652 192.574Z" fill="#0ABEDE"/>
<path d="M190.447 153.728L190.733 153.84L238.484 173.185L238.484 212.109L238.197 212.221L190.447 231.565L190.16 231.453L142.409 212.109L142.409 173.185L142.696 173.073L190.447 153.728ZM237.354 173.654L190.447 154.656L143.539 173.654L143.539 211.651L190.447 230.649L237.354 211.651L237.354 173.654Z" fill="#0ABEDE"/>
<path d="M48.0373 172.961L48.3238 173.073L96.0747 192.418L96.0747 231.342L95.7882 231.453L48.0373 250.798L47.7508 250.686L-8.15001e-05 231.342L-7.66523e-05 192.418L0.286468 192.306L48.0373 172.961ZM94.9446 192.887L48.0373 173.888L1.13007 192.887L1.13006 230.884L48.0373 249.882L94.9446 230.884L94.9446 192.887Z" fill="#0ABEDE"/>
<path d="M48.0373 365.269L96.0747 384.726L96.0747 423.649L95.7882 423.761L48.0373 443.106L-8.15001e-05 423.649L-7.66523e-05 384.726L0.286468 384.614L48.0373 365.269ZM94.9446 385.195L48.0373 366.196L1.13007 385.195L1.13006 423.192L48.0373 442.19L94.9446 423.192L94.9446 385.195Z" fill="#0ABEDE"/>
<path d="M237.927 288.348L238.213 288.46L285.964 307.805L285.964 346.729L285.677 346.84L237.927 366.185L189.889 346.729L189.889 307.805L190.176 307.693L237.927 288.348ZM284.834 308.274L237.927 289.275L191.019 308.274L191.019 346.271L237.927 365.269L284.834 346.271L284.834 308.274Z" fill="#0ABEDE"/>
<path d="M237.927 172.961L238.213 173.073L285.964 192.418L285.964 231.342L285.677 231.453L237.927 250.798L237.64 250.686L189.889 231.342L189.889 192.418L190.176 192.306L237.927 172.961ZM284.834 192.887L237.927 173.888L191.019 192.887L191.019 230.884L237.927 249.882L284.834 230.884L284.834 192.887Z" fill="#0ABEDE"/>
<path d="M332.855 211.416L333.142 211.528L380.893 230.873L380.893 269.797L380.606 269.908L332.855 289.253L332.569 289.141L284.818 269.797L284.818 230.873L285.104 230.761L332.855 211.416ZM379.762 231.342L332.855 212.343L285.948 231.342L285.948 269.339L332.855 288.337L379.762 269.339L379.762 231.342Z" fill="#0ABEDE"/>
<path d="M95.5173 269.115L95.8038 269.227L143.555 288.572L143.555 327.496L143.268 327.607L95.5173 346.952L47.48 327.496L47.48 288.572L47.7665 288.46L95.5173 269.115ZM142.425 289.041L95.5173 270.042L48.6101 289.041L48.6101 327.038L95.5173 346.036L142.425 327.038L142.425 289.041Z" fill="#0ABEDE"/>
<path d="M95.5173 307.57L143.555 327.027L143.555 365.95L143.268 366.062L95.5173 385.407L47.48 365.95L47.48 327.026L47.7665 326.915L95.5173 307.57ZM142.425 327.496L95.5173 308.497L48.6101 327.496L48.6101 365.493L95.5173 384.491L142.425 365.493L142.425 327.496Z" fill="#0ABEDE"/>
<path d="M142.982 57.5633L143.268 57.675L191.019 77.0197L191.019 115.944L190.733 116.055L142.982 135.4L142.695 135.288L94.9443 115.944L94.9443 77.0197L95.2308 76.908L142.982 57.5633ZM189.889 77.4888L142.982 58.4904L96.0744 77.4888L96.0744 115.486L142.982 134.484L189.889 115.486L189.889 77.4888Z" fill="#0ABEDE"/>
<path d="M142.982 249.882L143.269 249.994L191.02 269.339L191.02 308.263L190.733 308.374L142.982 327.719L94.9448 308.263L94.9448 269.339L95.2313 269.227L142.982 249.882ZM189.889 269.808L142.982 250.809L96.0749 269.808L96.0749 307.805L142.982 326.803L189.889 307.805L189.889 269.808Z" fill="#0ABEDE"/>
<path d="M142.982 442.201L191.019 461.658L191.019 500.582L190.733 500.693L142.982 520.038L94.9443 500.581L94.9443 461.658L95.2308 461.546L142.982 442.201ZM189.889 462.127L142.982 443.128L96.0744 462.127L96.0744 500.124L142.982 519.122L189.889 500.124L189.889 462.127Z" fill="#0ABEDE"/>
<path d="M190.447 269.115L190.733 269.227L238.484 288.572L238.484 327.496L238.197 327.607L190.447 346.952L142.409 327.496L142.409 288.572L142.696 288.46L190.447 269.115ZM237.354 289.041L190.447 270.042L143.539 289.041L143.539 327.038L190.447 346.036L237.354 327.038L237.354 289.041Z" fill="#0ABEDE"/>
<path d="M190.447 384.502L238.484 403.959L238.484 442.882L238.197 442.994L190.447 462.339L142.409 442.882L142.409 403.959L142.696 403.847L190.447 384.502ZM237.354 404.428L190.447 385.429L143.539 404.428L143.539 442.425L190.447 461.423L237.354 442.425L237.354 404.428Z" fill="#0ABEDE"/>
<path d="M332.855 96.0294L333.142 96.1411L380.893 115.486L380.893 154.41L380.606 154.521L332.855 173.866L332.569 173.754L284.818 154.41L284.818 115.486L285.104 115.374L332.855 96.0294ZM379.762 115.955L332.855 96.9565L285.948 115.955L285.948 153.952L332.855 172.95L379.762 153.952L379.762 115.955Z" fill="#0ABEDE"/>
<path d="M380.336 38.3303L380.622 38.442L428.373 57.7867L428.373 96.7107L428.087 96.8223L380.336 116.167L380.049 116.055L332.298 96.7106L332.298 57.7867L332.585 57.675L380.336 38.3303ZM427.243 58.2558L380.336 39.2574L333.428 58.2558L333.428 96.2527L380.336 115.251L427.243 96.2527L427.243 58.2558Z" fill="#0ABEDE"/>
<path d="M427.8 134.495L428.087 134.607L475.837 153.952L475.837 192.876L475.551 192.987L427.8 212.332L427.514 212.22L379.763 192.876L379.763 153.952L380.049 153.84L427.8 134.495ZM474.707 154.421L427.8 135.422L380.893 154.421L380.893 192.418L427.8 211.416L474.707 192.418L474.707 154.421Z" fill="#0ABEDE"/>
<path d="M427.8 249.882L428.087 249.994L475.837 269.339L475.837 308.263L475.551 308.374L427.8 327.719L379.763 308.263L379.763 269.339L380.049 269.227L427.8 249.882ZM474.707 269.808L427.8 250.809L380.893 269.808L380.893 307.805L427.8 326.803L474.707 307.805L474.707 269.808Z" fill="#0ABEDE"/>
<path d="M427.8 326.803L475.837 346.26L475.837 385.184L475.551 385.295L427.8 404.64L379.763 385.184L379.763 346.26L380.049 346.148L427.8 326.803ZM474.707 346.729L427.8 327.73L380.893 346.729L380.893 384.726L427.8 403.724L474.707 384.726L474.707 346.729Z" fill="#0ABEDE"/>
<path d="M475.264 76.7964L475.551 76.9081L523.302 96.2528L523.302 135.177L523.015 135.288L475.264 154.633L474.978 154.521L427.227 135.177L427.227 96.2528L427.514 96.1411L475.264 76.7964ZM522.172 96.7219L475.264 77.7234L428.357 96.7219L428.357 134.719L475.264 153.717L522.172 134.719L522.172 96.7219Z" fill="#0ABEDE"/>
<path d="M570.209 38.3303L570.496 38.442L618.247 57.7867L618.247 96.7107L617.96 96.8223L570.209 116.167L569.923 116.055L522.172 96.7106L522.172 57.7867L522.458 57.675L570.209 38.3303ZM617.116 58.2558L570.209 39.2574L523.302 58.2558L523.302 96.2527L570.209 115.251L617.116 96.2527L617.116 58.2558Z" fill="#0ABEDE"/>
<path d="M617.674 19.1086L617.96 19.2203L665.711 38.565L665.711 77.4889L665.424 77.6006L617.674 96.9453L617.387 96.8336L569.636 77.4889L569.636 38.565L569.923 38.4533L617.674 19.1086ZM664.581 39.0341L617.674 20.0356L570.766 39.0341L570.766 77.031L617.674 96.0294L664.581 77.031L664.581 39.0341Z" fill="#0ABEDE"/>
</svg>
