<svg width="25" height="25" viewBox="0 0 25 25" fill="none" xmlns="http://www.w3.org/2000/svg">
<path d="M5.06837 10.8867C6.98837 14.66 10.0817 17.74 13.855 19.6733L16.7884 16.74C17.1484 16.38 17.6817 16.26 18.1484 16.42C19.6417 16.9133 21.255 17.18 22.9084 17.18C23.6417 17.18 24.2417 17.78 24.2417 18.5133V23.1667C24.2417 23.9 23.6417 24.5 22.9084 24.5C10.3884 24.5 0.241699 14.3533 0.241699 1.83333C0.241699 1.1 0.841699 0.5 1.57503 0.5H6.2417C6.97503 0.5 7.57503 1.1 7.57503 1.83333C7.57503 3.5 7.8417 5.1 8.33503 6.59333C8.4817 7.06 8.37503 7.58 8.0017 7.95333L5.06837 10.8867Z" fill="white"/>
<path d="M22.1698 3.15321C22.1698 2.87707 21.9459 2.65321 21.6698 2.65321L17.1698 2.65321C16.8936 2.65321 16.6698 2.87707 16.6698 3.15321C16.6698 3.42935 16.8936 3.65321 17.1698 3.65321L21.1698 3.65321L21.1698 7.65321C21.1698 7.92935 21.3936 8.15321 21.6698 8.15321C21.9459 8.15321 22.1698 7.92935 22.1698 7.65321L22.1698 3.15321ZM12.5953 12.9349L22.0233 3.50676L21.3162 2.79965L11.8881 12.2277L12.5953 12.9349Z" fill="white"/>
</svg>
