<svg width="56" height="57" viewBox="0 0 56 57" fill="none" xmlns="http://www.w3.org/2000/svg">
<rect y="0.0541992" width="56" height="56" rx="8" fill="white"/>
<path d="M48 28.1758C48 38.2181 40.6767 46.5434 31.1167 48.0542V34.0311H35.765L36.65 28.2294H31.1167V24.465C31.1167 22.8771 31.89 21.3311 34.3667 21.3311H36.8817V16.3912C36.8817 16.3912 34.5983 15.9989 32.4167 15.9989C27.86 15.9989 24.8833 18.7773 24.8833 23.806V28.2277H19.8183V34.0295H24.8833V48.0525C15.325 46.5401 8 38.2164 8 28.1758C8 17.0636 16.955 8.0542 28 8.0542C39.045 8.0542 48 17.062 48 28.1758Z" fill="#1A405C"/>
</svg>
