<svg width="48" height="64" viewBox="0 0 48 64" fill="none" xmlns="http://www.w3.org/2000/svg">
<path d="M11.3184 64C5.1328 64 0.118401 59.6397 0.118401 54.2609C0.118401 48.8821 5.1328 44.5217 11.3184 44.5217H22.5184V54.2609C22.5184 59.6397 17.504 64 11.3184 64ZM36.8 19.4783H25.6V0H36.8C42.9856 0 48 4.36035 48 9.73913C48 15.1179 42.9856 19.4783 36.8 19.4783ZM11.2 19.4783H22.4V0H11.2C5.0144 0 0 4.36035 0 9.73913C0 15.1179 5.0144 19.4783 11.2 19.4783ZM11.2 41.7391H22.4V22.2609H11.2C5.0144 22.2609 0 26.6212 0 32C0 37.3788 5.0144 41.7391 11.2 41.7391ZM35.2 22.2609C32.6539 22.2609 30.2121 23.1404 28.4118 24.7059C26.6114 26.2714 25.6 28.3947 25.6 30.6087C25.6 32.8227 26.6114 34.946 28.4118 36.5115C30.2121 38.077 32.6539 38.9565 35.2 38.9565C37.7461 38.9565 40.1879 38.077 41.9882 36.5115C43.7886 34.946 44.8 32.8227 44.8 30.6087C44.8 28.3947 43.7886 26.2714 41.9882 24.7059C40.1879 23.1404 37.7461 22.2609 35.2 22.2609Z"  fill="#0ABEDE" 
className="figma-white"
/>
</svg>
