<svg width="64" height="64" viewBox="0 0 64 64" fill="none" xmlns="http://www.w3.org/2000/svg">
<path d="M60.4078 0H3.59212C1.43045 0 -0.226792 1.66754 0.0254022 3.55956L6.51037 55.5741C6.65448 56.8568 7.69939 57.9471 9.10447 58.2999L31.0092 63.8797C31.6577 64.0401 32.3426 64.0401 32.9911 63.8797L54.8956 58.2999C56.3007 57.9471 57.3095 56.8568 57.4896 55.5741L63.9746 3.55956C64.2268 1.66754 62.5695 0 60.4078 0ZM29.7482 44.8633C29.7482 45.633 29.3519 46.3385 28.6674 46.7874C28.199 47.1081 27.6226 47.2684 27.0461 47.2684C26.7939 47.2684 26.5417 47.2364 26.2895 47.1722L15.0489 44.2861C13.6078 43.9013 12.7794 42.5865 13.2117 41.3038C13.608 40.021 15.1211 39.3155 16.5623 39.6683L24.3441 41.6565V16.0661C24.3441 14.7513 25.569 13.661 27.0461 13.661C28.5233 13.661 29.7482 14.7513 29.7482 16.0661V44.8633ZM50.9325 42.0093C50.9325 43.0996 50.1039 44.0616 48.879 44.3502L35.9093 47.2364C35.6932 47.3005 35.477 47.3005 35.2608 47.3005C34.0359 47.3005 32.9547 46.5629 32.6304 45.4726C32.2701 44.1899 33.1348 42.8751 34.612 42.5544L45.5284 40.1172V34.6657L37.2784 35.7239C36.4858 35.8201 35.7288 35.6277 35.1163 35.1467C34.5399 34.6977 34.1796 34.0243 34.1796 33.3188V17.4451C34.1796 16.2585 35.1524 15.2324 36.4854 15.072L47.8345 13.629C49.3116 13.4366 50.6803 14.3665 50.8965 15.6813C51.1127 16.9961 50.0679 18.2147 48.5907 18.4071L39.5481 19.5616V30.5609L47.7981 29.5027C48.5907 29.4065 49.3473 29.5989 49.9598 30.0799C50.5362 30.5289 50.8965 31.2023 50.8965 31.9078V42.0093H50.9325Z" fill="#0ABEDE"/>
</svg>
