<svg width="56" height="57" viewBox="0 0 56 57" fill="none" xmlns="http://www.w3.org/2000/svg">
<rect y="0.0541992" width="56" height="56" rx="8" fill="white"/>
<path d="M43.5556 8.0542H12.4444C9.98889 8.0542 8 10.0431 8 12.4986V43.6098C8 46.0653 9.98889 48.0542 12.4444 48.0542H43.5556C46.0111 48.0542 48 46.0653 48 43.6098V12.4986C48 10.0431 46.0111 8.0542 43.5556 8.0542ZM21.3333 39.1653H15.7267V23.6098H21.3333V39.1653ZM18.4311 20.7586C16.7178 20.7586 15.5733 19.6164 15.5733 18.092C15.5733 16.5675 16.7156 15.4253 18.62 15.4253C20.3333 15.4253 21.4778 16.5675 21.4778 18.092C21.4778 19.6164 20.3356 20.7586 18.4311 20.7586ZM41.3333 39.1653H35.9067V30.6631C35.9067 28.312 34.46 27.7698 33.9178 27.7698C33.3756 27.7698 31.5667 28.132 31.5667 30.6631C31.5667 31.0253 31.5667 39.1653 31.5667 39.1653H25.96V23.6098H31.5667V25.7809C32.2889 24.5142 33.7356 23.6098 36.4489 23.6098C39.1622 23.6098 41.3333 25.7809 41.3333 30.6631V39.1653Z" fill="#1A405C"/>
</svg>
