<svg width="25" height="19" viewBox="0 0 25 19" fill="none" xmlns="http://www.w3.org/2000/svg">
<path d="M12.2416 8.429L23.1959 1.04C22.7555 0.693152 22.2207 0.503871 21.6702 0.5H2.81307C2.26256 0.503871 1.72776 0.693152 1.28735 1.04L12.2416 8.429Z" fill="white"/>
<path d="M12.7046 10.2559L12.5588 10.3279H12.4903C12.4113 10.365 12.3275 10.3892 12.2417 10.3999C12.1706 10.4093 12.0986 10.4093 12.0274 10.3999H11.9588L11.8131 10.3279L0.327413 2.53394C0.272538 2.75132 0.243743 2.97505 0.241699 3.19994V15.7999C0.241699 16.516 0.512617 17.2028 0.994853 17.7091C1.47709 18.2155 2.13114 18.4999 2.81313 18.4999H21.6703C22.3523 18.4999 23.0063 18.2155 23.4885 17.7091C23.9708 17.2028 24.2417 16.516 24.2417 15.7999V3.19994C24.2397 2.97505 24.2109 2.75132 24.156 2.53394L12.7046 10.2559Z" fill="white"/>
</svg>
