<svg width="24" height="24" viewBox="0 0 24 24" fill="none" xmlns="http://www.w3.org/2000/svg">
<path d="M23.0185 10.5197L2.88457 0.231188C2.5905 0.0789248 2.2564 -0.000857035 1.91645 6.94326e-06C1.5765 0.000870921 1.24291 0.0823497 0.949812 0.236106C0.66038 0.383173 0.419915 0.596252 0.253028 0.853536C0.0861406 1.11082 -0.00117679 1.40307 1.1978e-05 1.70037V22.2996C-0.00117679 22.5969 0.0861406 22.8892 0.253028 23.1464C0.419915 23.4037 0.66038 23.6168 0.949812 23.7639C1.2429 23.9176 1.5765 23.9991 1.91645 24C2.2564 24.0009 2.59051 23.9211 2.88458 23.7688L23.0186 13.4803C23.3157 13.3347 23.5636 13.1205 23.7362 12.8601C23.9089 12.5997 24 12.3026 24 12C24 11.6974 23.9089 11.4003 23.7362 11.1399C23.5636 10.8795 23.3157 10.6653 23.0185 10.5197ZM13.4624 13.212L15.7252 15.232L5.1423 20.6395L13.4624 13.212ZM5.14096 3.35917L15.7253 8.76786L13.4624 10.788L5.14096 3.35917ZM17.452 14.3497L14.82 12L17.4521 9.65024L22.0505 12L17.452 14.3497Z" fill="white"/>
</svg>
