<svg width="64" height="64" viewBox="0 0 64 64" fill="none" xmlns="http://www.w3.org/2000/svg">
<path d="M31.3043 0C19.2011 0 16.6957 6.25 16.6957 9.86957V16.6957H30.6087V18.087H9.86957C5.27717 18.087 0 21.7065 0 32C0 42.2935 5.27717 45.913 9.86957 45.913H18.087V37.5652C18.087 34.5054 20.5924 32 23.6522 32H40.3478C42.712 32 44.5217 30.1902 44.5217 27.8261V9.86957C44.5217 5 39.9293 0 31.3043 0ZM25.0435 6.95652C26.5761 6.95652 27.8261 8.20652 27.8261 9.73913C27.8261 11.2717 26.5761 12.5217 25.0435 12.5217C23.5109 12.5217 22.2609 11.2717 22.2609 9.73913C22.2609 8.20652 23.5109 6.95652 25.0435 6.95652ZM45.913 18.087V27.8261C45.913 30.8859 43.4076 33.3913 40.3478 33.3913H23.6522C21.288 33.3913 19.4783 35.2011 19.4783 37.5652V54.1304C19.4783 59 24.0707 64 32.6957 64C44.7989 64 47.3043 57.75 47.3043 54.1304V47.3043H33.3913V45.913H54.1304C58.7228 45.913 64 42.2935 64 32C64 21.7065 58.7228 18.087 54.1304 18.087H45.913ZM38.9565 51.4783C40.4891 51.4783 41.7391 52.7283 41.7391 54.2609C41.7391 55.7935 40.4891 57.0435 38.9565 57.0435C37.4239 57.0435 36.1739 55.7935 36.1739 54.2609C36.1739 52.7283 37.4239 51.4783 38.9565 51.4783Z" fill="white"/>
</svg>
