<svg width="65" height="64" viewBox="0 0 65 64" fill="none" xmlns="http://www.w3.org/2000/svg">
<path d="M31.8043 0C19.7011 0 17.1957 6.25 17.1957 9.86957V16.6957H31.1087V18.087H10.3696C5.77717 18.087 0.5 21.7065 0.5 32C0.5 42.2935 5.77717 45.913 10.3696 45.913H18.587V37.5652C18.587 34.5054 21.0924 32 24.1522 32H40.8478C43.212 32 45.0217 30.1902 45.0217 27.8261V9.86957C45.0217 5 40.4293 0 31.8043 0ZM25.5435 6.95652C27.0761 6.95652 28.3261 8.20652 28.3261 9.73913C28.3261 11.2717 27.0761 12.5217 25.5435 12.5217C24.0109 12.5217 22.7609 11.2717 22.7609 9.73913C22.7609 8.20652 24.0109 6.95652 25.5435 6.95652ZM46.413 18.087V27.8261C46.413 30.8859 43.9076 33.3913 40.8478 33.3913H24.1522C21.788 33.3913 19.9783 35.2011 19.9783 37.5652V54.1304C19.9783 59 24.5707 64 33.1957 64C45.2989 64 47.8043 57.75 47.8043 54.1304V47.3043H33.8913V45.913H54.6304C59.2228 45.913 64.5 42.2935 64.5 32C64.5 21.7065 59.2228 18.087 54.6304 18.087H46.413ZM39.4565 51.4783C40.9891 51.4783 42.2391 52.7283 42.2391 54.2609C42.2391 55.7935 40.9891 57.0435 39.4565 57.0435C37.9239 57.0435 36.6739 55.7935 36.6739 54.2609C36.6739 52.7283 37.9239 51.4783 39.4565 51.4783Z" fill="#0ABEDE"/>
</svg>
