<svg width="258" height="73" viewBox="0 0 258 73" fill="none" xmlns="http://www.w3.org/2000/svg">
<path d="M65.2423 0.758402C69.6602 0.810258 73.1997 4.43377 73.1478 8.85174L72.9952 21.8508L0.373267 20.9985L0.525842 7.99935C0.577698 3.58138 4.20121 0.0419403 8.61918 0.0937958L65.2423 0.758402Z" fill="#0ABEDE"/>
<path d="M0 8.0542C0 3.63592 3.58172 0.0541992 8 0.0541992H21V72.0542H8C3.58172 72.0542 0 68.4725 0 64.0542V8.0542Z" fill="#0ABEDE"/>
<rect x="51" y="21.0542" width="22" height="26" fill="#0ABEDE"/>
<rect x="51" y="51.0542" width="22" height="21" fill="#1A405C"/>
<rect x="26" y="26.0542" width="22" height="21" fill="#1A405C"/>
<rect x="21" y="51.0542" width="26" height="21" fill="#0ABEDE"/>
<path d="M101.498 34.48L94.7777 27.792L97.4657 25.104L104.154 31.792L101.498 34.48ZM93.3697 34.48C91.0657 34.48 89.0764 33.9787 87.4017 32.976C85.7377 31.9733 84.4524 30.5707 83.5457 28.768C82.6497 26.9653 82.2017 24.8693 82.2017 22.48C82.2017 20.0907 82.6497 17.9947 83.5457 16.192C84.4524 14.3893 85.7377 12.9867 87.4017 11.984C89.0764 10.9813 91.0657 10.48 93.3697 10.48C95.6737 10.48 97.6577 10.9813 99.3217 11.984C100.996 12.9867 102.282 14.3893 103.178 16.192C104.084 17.9947 104.538 20.0907 104.538 22.48C104.538 24.8693 104.084 26.9653 103.178 28.768C102.282 30.5707 100.996 31.9733 99.3217 32.976C97.6577 33.9787 95.6737 34.48 93.3697 34.48ZM93.3697 30.384C94.831 30.4053 96.047 30.0907 97.0177 29.44C97.9884 28.7893 98.7137 27.8667 99.1937 26.672C99.6844 25.4773 99.9297 24.08 99.9297 22.48C99.9297 20.88 99.6844 19.4933 99.1937 18.32C98.7137 17.1467 97.9884 16.2347 97.0177 15.584C96.047 14.9333 94.831 14.5973 93.3697 14.576C91.9084 14.5547 90.6924 14.8693 89.7217 15.52C88.751 16.1707 88.0204 17.0933 87.5297 18.288C87.0497 19.4827 86.8097 20.88 86.8097 22.48C86.8097 24.08 87.0497 25.4667 87.5297 26.64C88.0204 27.8133 88.751 28.7253 89.7217 29.376C90.6924 30.0267 91.9084 30.3627 93.3697 30.384ZM117.108 34.48C115.252 34.48 113.62 34.1067 112.212 33.36C110.804 32.6027 109.705 31.5413 108.916 30.176C108.126 28.8107 107.732 27.2053 107.732 25.36V10.992L112.148 10.96V25.328C112.148 26.0853 112.276 26.7733 112.532 27.392C112.788 28.0107 113.14 28.544 113.588 28.992C114.046 29.44 114.574 29.7867 115.172 30.032C115.78 30.2667 116.425 30.384 117.108 30.384C117.812 30.384 118.462 30.2613 119.06 30.016C119.668 29.7707 120.196 29.424 120.644 28.976C121.092 28.528 121.438 27.9947 121.684 27.376C121.94 26.7573 122.068 26.0747 122.068 25.328V10.96H126.484V25.36C126.484 27.2053 126.089 28.8107 125.3 30.176C124.51 31.5413 123.412 32.6027 122.004 33.36C120.596 34.1067 118.964 34.48 117.108 34.48ZM128.382 34L135.422 10.96H141.918L148.958 34H144.478L138.206 13.68H139.038L132.862 34H128.382ZM132.606 29.2V25.136H144.766V29.2H132.606ZM152.145 34V10.96H156.497V29.936H166.417V34H152.145Z" fill="#0ABEDE"/>
<path d="M179.294 34V15.024H172.03V10.96H190.91V15.024H183.646V34H179.294ZM193.482 34V10.96H208.522V15.024H197.834V19.952H206.602V24.016H197.834V29.936H208.522V34H193.482ZM221.432 34.48C219.128 34.48 217.139 33.9787 215.464 32.976C213.8 31.9733 212.515 30.5707 211.608 28.768C210.712 26.9653 210.264 24.8693 210.264 22.48C210.264 20.0907 210.712 17.9947 211.608 16.192C212.515 14.3893 213.8 12.9867 215.464 11.984C217.139 10.9813 219.128 10.48 221.432 10.48C224.078 10.48 226.296 11.136 228.088 12.448C229.891 13.76 231.16 15.536 231.896 17.776L227.512 18.992C227.086 17.5947 226.366 16.512 225.352 15.744C224.339 14.9653 223.032 14.576 221.432 14.576C219.971 14.576 218.75 14.9013 217.768 15.552C216.798 16.2027 216.067 17.12 215.576 18.304C215.086 19.488 214.84 20.88 214.84 22.48C214.84 24.08 215.086 25.472 215.576 26.656C216.067 27.84 216.798 28.7573 217.768 29.408C218.75 30.0587 219.971 30.384 221.432 30.384C223.032 30.384 224.339 29.9947 225.352 29.216C226.366 28.4373 227.086 27.3547 227.512 25.968L231.896 27.184C231.16 29.424 229.891 31.2 228.088 32.512C226.296 33.824 224.078 34.48 221.432 34.48ZM235.419 34V10.96H239.771V20.432H250.075V10.96H254.427V34H250.075V24.496H239.771V34H235.419Z" fill="#1A405C"/>
<path d="M84.7937 65L81.4257 53.48H83.4497L85.7457 61.8L88.0337 53.496L90.0577 53.48L92.3537 61.8L94.6417 53.48H96.6657L93.3057 65H91.4017L89.0417 56.808L86.6977 65H84.7937ZM100.946 65.24C100.071 65.24 99.3033 65.0507 98.6419 64.672C97.9806 64.2933 97.4633 63.768 97.0899 63.096C96.7219 62.424 96.5379 61.6507 96.5379 60.776C96.5379 59.832 96.7193 59.0133 97.0819 58.32C97.4446 57.6213 97.9486 57.08 98.5939 56.696C99.2393 56.312 99.9859 56.12 100.834 56.12C101.73 56.12 102.49 56.3307 103.114 56.752C103.743 57.168 104.21 57.7573 104.514 58.52C104.818 59.2827 104.933 60.1813 104.858 61.216H102.946V60.512C102.941 59.5733 102.775 58.888 102.45 58.456C102.125 58.024 101.613 57.808 100.914 57.808C100.125 57.808 99.5379 58.0533 99.1539 58.544C98.7699 59.0293 98.5779 59.7413 98.5779 60.68C98.5779 61.5547 98.7699 62.232 99.1539 62.712C99.5379 63.192 100.098 63.432 100.834 63.432C101.309 63.432 101.717 63.328 102.058 63.12C102.405 62.9067 102.671 62.6 102.858 62.2L104.762 62.776C104.431 63.5547 103.919 64.16 103.226 64.592C102.538 65.024 101.778 65.24 100.946 65.24ZM97.9699 61.216V59.76H103.914V61.216H97.9699ZM110.006 65V53.48H111.934V63.192H117.022V65H110.006ZM118.537 55.048V53.28H120.465V55.048H118.537ZM118.537 65V56.36H120.465V65H118.537ZM125.198 65L122.062 56.36H123.99L126.166 62.624L128.334 56.36H130.27L127.134 65H125.198ZM135.321 65.24C134.446 65.24 133.678 65.0507 133.017 64.672C132.356 64.2933 131.838 63.768 131.465 63.096C131.097 62.424 130.913 61.6507 130.913 60.776C130.913 59.832 131.094 59.0133 131.457 58.32C131.82 57.6213 132.324 57.08 132.969 56.696C133.614 56.312 134.361 56.12 135.209 56.12C136.105 56.12 136.865 56.3307 137.489 56.752C138.118 57.168 138.585 57.7573 138.889 58.52C139.193 59.2827 139.308 60.1813 139.233 61.216H137.321V60.512C137.316 59.5733 137.15 58.888 136.825 58.456C136.5 58.024 135.988 57.808 135.289 57.808C134.5 57.808 133.913 58.0533 133.529 58.544C133.145 59.0293 132.953 59.7413 132.953 60.68C132.953 61.5547 133.145 62.232 133.529 62.712C133.913 63.192 134.473 63.432 135.209 63.432C135.684 63.432 136.092 63.328 136.433 63.12C136.78 62.9067 137.046 62.6 137.233 62.2L139.137 62.776C138.806 63.5547 138.294 64.16 137.601 64.592C136.913 65.024 136.153 65.24 135.321 65.24ZM132.345 61.216V59.76H138.289V61.216H132.345ZM153.237 65.24L149.949 61.968L151.157 60.76L154.429 64.032L153.237 65.24ZM149.093 65.24C147.941 65.24 146.954 64.9893 146.133 64.488C145.312 63.9813 144.68 63.2773 144.237 62.376C143.8 61.4747 143.581 60.4293 143.581 59.24C143.581 58.0507 143.8 57.0053 144.237 56.104C144.68 55.2027 145.312 54.5013 146.133 54C146.954 53.4933 147.941 53.24 149.093 53.24C150.245 53.24 151.232 53.4933 152.053 54C152.88 54.5013 153.512 55.2027 153.949 56.104C154.392 57.0053 154.613 58.0507 154.613 59.24C154.613 60.4293 154.392 61.4747 153.949 62.376C153.512 63.2773 152.88 63.9813 152.053 64.488C151.232 64.9893 150.245 65.24 149.093 65.24ZM149.093 63.424C149.866 63.4293 150.509 63.2587 151.021 62.912C151.538 62.5653 151.925 62.0773 152.181 61.448C152.442 60.8187 152.573 60.0827 152.573 59.24C152.573 58.3973 152.442 57.6667 152.181 57.048C151.925 56.424 151.538 55.9387 151.021 55.592C150.509 55.2453 149.866 55.0667 149.093 55.056C148.32 55.0507 147.677 55.2213 147.165 55.568C146.653 55.9147 146.266 56.4027 146.005 57.032C145.749 57.6613 145.621 58.3973 145.621 59.24C145.621 60.0827 145.749 60.816 146.005 61.44C146.261 62.0587 146.645 62.5413 147.157 62.888C147.674 63.2347 148.32 63.4133 149.093 63.424ZM159.445 65.248C158.805 65.248 158.277 65.1413 157.861 64.928C157.445 64.7147 157.115 64.4427 156.869 64.112C156.624 63.7813 156.443 63.4293 156.325 63.056C156.208 62.6827 156.131 62.3307 156.093 62C156.061 61.664 156.045 61.392 156.045 61.184V56.36H157.997V60.52C157.997 60.7867 158.016 61.088 158.053 61.424C158.091 61.7547 158.176 62.0747 158.309 62.384C158.448 62.688 158.651 62.9387 158.917 63.136C159.189 63.3333 159.555 63.432 160.013 63.432C160.259 63.432 160.501 63.392 160.741 63.312C160.981 63.232 161.197 63.096 161.389 62.904C161.587 62.7067 161.744 62.4373 161.861 62.096C161.979 61.7547 162.037 61.3227 162.037 60.8L163.181 61.288C163.181 62.024 163.037 62.6907 162.749 63.288C162.467 63.8853 162.048 64.3627 161.493 64.72C160.939 65.072 160.256 65.248 159.445 65.248ZM162.269 65V62.32H162.037V56.36H163.973V65H162.269ZM168.637 65.24C168.013 65.24 167.485 65.1227 167.053 64.888C166.621 64.648 166.293 64.3307 166.069 63.936C165.85 63.5413 165.741 63.1067 165.741 62.632C165.741 62.216 165.81 61.8427 165.949 61.512C166.088 61.176 166.301 60.888 166.589 60.648C166.877 60.4027 167.25 60.2027 167.709 60.048C168.056 59.936 168.461 59.8347 168.925 59.744C169.394 59.6533 169.901 59.5707 170.445 59.496C170.994 59.416 171.568 59.3307 172.165 59.24L171.477 59.632C171.482 59.0347 171.349 58.5947 171.077 58.312C170.805 58.0293 170.346 57.888 169.701 57.888C169.312 57.888 168.936 57.9787 168.573 58.16C168.21 58.3413 167.957 58.6533 167.813 59.096L166.053 58.544C166.266 57.8133 166.672 57.2267 167.269 56.784C167.872 56.3413 168.682 56.12 169.701 56.12C170.469 56.12 171.144 56.2453 171.725 56.496C172.312 56.7467 172.746 57.1573 173.029 57.728C173.184 58.032 173.277 58.344 173.309 58.664C173.341 58.9787 173.357 59.3227 173.357 59.696V65H171.669V63.128L171.949 63.432C171.56 64.056 171.104 64.5147 170.581 64.808C170.064 65.096 169.416 65.24 168.637 65.24ZM169.021 63.704C169.458 63.704 169.832 63.6267 170.141 63.472C170.45 63.3173 170.696 63.128 170.877 62.904C171.064 62.68 171.189 62.4693 171.253 62.272C171.354 62.0267 171.41 61.7467 171.421 61.432C171.437 61.112 171.445 60.8533 171.445 60.656L172.037 60.832C171.456 60.9227 170.957 61.0027 170.541 61.072C170.125 61.1413 169.768 61.208 169.469 61.272C169.17 61.3307 168.906 61.3973 168.677 61.472C168.453 61.552 168.264 61.6453 168.109 61.752C167.954 61.8587 167.834 61.9813 167.749 62.12C167.669 62.2587 167.629 62.4213 167.629 62.608C167.629 62.8213 167.682 63.0107 167.789 63.176C167.896 63.336 168.05 63.464 168.253 63.56C168.461 63.656 168.717 63.704 169.021 63.704ZM175.6 65V53.24H177.528V65H175.6ZM180.084 55.048V53.28H182.012V55.048H180.084ZM180.084 65V56.36H182.012V65H180.084ZM189.473 65C188.902 65.1067 188.342 65.152 187.793 65.136C187.249 65.1253 186.761 65.0267 186.329 64.84C185.897 64.648 185.569 64.3467 185.345 63.936C185.147 63.5627 185.043 63.1813 185.033 62.792C185.022 62.4027 185.017 61.9627 185.017 61.472V53.96H186.937V61.36C186.937 61.7067 186.939 62.0107 186.945 62.272C186.955 62.5333 187.011 62.7467 187.113 62.912C187.305 63.232 187.611 63.4107 188.033 63.448C188.454 63.4853 188.934 63.464 189.473 63.384V65ZM183.449 57.872V56.36H189.473V57.872H183.449ZM192.232 68.84L193.896 64.272L193.928 65.616L190.16 56.36H192.168L194.84 63.208H194.328L196.928 56.36H198.856L194.04 68.84H192.232Z" fill="#1A405C"/>
<line x1="207.242" y1="58.5" x2="257.242" y2="58.5" stroke="#1A405C"/>
</svg>
