<svg width="64" height="64" viewBox="0 0 64 64" fill="none" xmlns="http://www.w3.org/2000/svg">
<path d="M28.7733 27.0013C27.6729 27.5665 26.7857 28.4092 26.2237 29.423C25.6618 30.4367 25.4503 31.576 25.6162 32.6966C25.782 33.8173 26.3177 34.869 27.1555 35.7188C27.9933 36.5686 29.0955 37.1783 30.3228 37.4709C31.5501 37.7634 32.8474 37.7256 34.0505 37.3622C35.2537 36.9989 36.3087 36.3263 37.0821 35.4295C37.8555 34.5327 38.3127 33.452 38.3957 32.3241C38.4788 31.1962 38.184 30.0717 37.5486 29.0929C36.6967 27.7804 35.2935 26.8227 33.6479 26.4304C32.0022 26.0382 30.2488 26.2435 28.7733 27.0013ZM57.5669 33.2019C57.1451 32.7731 56.7001 32.3431 56.2318 31.912C56.5589 31.6061 56.8754 31.3006 57.1814 30.9952C62.9577 25.2216 65.3956 19.4314 63.1366 15.9504C60.9706 12.6128 54.5273 11.6181 46.4608 13.0134C45.6663 13.1517 44.8762 13.3077 44.0904 13.4814C43.94 13.0201 43.78 12.5614 43.6104 12.1054C40.8739 4.76933 36.4534 -0.00252699 31.9354 1.00395e-06C27.603 0.001761 23.4158 4.47068 20.7446 11.384C20.4818 12.066 20.2387 12.7537 20.0153 13.447C19.4899 13.3324 18.9624 13.2264 18.4326 13.1293C9.92188 11.5748 3.06704 12.5986 0.812496 16.0816C-1.34935 19.4216 0.911525 24.881 6.31067 30.3923C6.84613 30.9376 7.39675 31.4707 7.96252 31.9915C7.29555 32.6027 6.66397 33.2136 6.07531 33.821C0.807029 39.2546 -1.32456 44.6247 0.833791 47.9503C3.06287 51.3854 9.82124 52.5082 18.0473 51.0682C18.7139 50.9506 19.3769 50.8184 20.0362 50.6714C20.2777 51.4214 20.5426 52.1649 20.8309 52.9018C23.4903 59.6764 27.654 64.0014 31.9711 64C36.4294 63.9977 40.8988 59.3508 43.6067 52.292C43.8205 51.7342 44.023 51.1549 44.2149 50.5584C45.0665 50.7469 45.9236 50.9142 46.7862 51.0602C54.7119 52.3942 61.0037 51.345 63.1582 48.017C65.3829 44.5794 63.0891 38.8137 57.5669 33.2019ZM3.47574 17.4458C4.86371 15.3018 10.4657 14.4654 17.814 15.8074C18.2836 15.8934 18.7613 15.9894 19.247 16.0954C18.5296 18.9187 18.0234 21.7811 17.7317 24.664C15.0803 26.3233 12.5524 28.1336 10.1638 30.0835C9.63757 29.5993 9.12537 29.1034 8.62722 28.5958C4.00113 23.8736 2.17291 19.4585 3.47574 17.4458ZM17.4564 35.7757C15.6198 34.5386 13.9131 33.2712 12.3639 31.9965C13.912 30.7297 15.6198 29.4666 17.4526 28.2328C17.3868 29.4897 17.3541 30.7475 17.3547 32.0062C17.3557 33.2632 17.3896 34.5197 17.4564 35.7757ZM17.4542 48.3856C14.3364 49.0023 11.1178 49.1033 7.95892 48.6836C7.09298 48.6236 6.25007 48.4063 5.48227 48.0451C4.71447 47.6839 4.0381 47.1864 3.49495 46.5834C2.18536 44.5653 3.89696 40.2539 8.40251 35.6067C8.96896 35.0243 9.55398 34.4572 10.1576 33.9052C12.5465 35.8652 15.0785 37.6826 17.737 39.3454C18.0327 42.2651 18.5449 45.1642 19.2702 48.0238C18.6683 48.1576 18.063 48.2783 17.4542 48.3856ZM42.9975 22.6597C41.7911 21.9834 40.5697 21.3289 39.3335 20.696C38.1169 20.0731 36.8858 19.4736 35.64 18.8974C37.7731 18.0996 39.8698 17.4181 41.8941 16.8628C42.3712 18.7774 42.7395 20.7121 42.9975 22.6597ZM23.6511 12.2726C25.9396 6.34901 29.3259 2.73497 31.937 2.73398C34.7178 2.73279 38.3309 6.6324 40.6935 12.9664C40.847 13.3793 40.9921 13.7945 41.1287 14.2121C38.0249 15.0685 34.9881 16.1067 32.0383 17.3199C29.1009 16.0924 26.0736 15.0426 22.9773 14.1777C23.1843 13.5379 23.4089 12.9028 23.6511 12.2726ZM22.2109 16.8288C24.3223 17.4201 26.3989 18.1058 28.4327 18.8831C25.9127 20.04 23.4579 21.3002 21.0682 22.6636C21.3569 20.622 21.741 18.666 22.2109 16.8288ZM21.0734 41.3429C22.2651 42.0215 23.4743 42.6751 24.7008 43.3036C25.952 43.9444 27.2198 44.5583 28.5043 45.1454C26.4549 45.9497 24.3605 46.6598 22.2293 47.2731C21.754 45.4104 21.3656 43.42 21.0734 41.3429ZM40.698 51.4085C39.741 54.1193 38.2313 56.6502 36.2444 58.8748C35.7534 59.5121 35.1205 60.0532 34.3853 60.4643C33.65 60.8755 32.8278 61.1481 31.9694 61.2654C29.35 61.2668 26.0067 57.7934 23.7324 52C23.4646 51.315 23.2182 50.6238 22.9932 49.9264C26.1043 49.0335 29.1438 47.954 32.0908 46.6954C35.0648 47.9164 38.1258 48.9624 41.2539 49.8266C41.0831 50.3577 40.8978 50.885 40.698 51.4085ZM42.001 47.171C39.9535 46.6078 37.8263 45.9149 35.6624 45.1053C36.8822 44.5342 38.1109 43.9311 39.3484 43.296C40.6183 42.6436 41.8558 41.9749 43.061 41.2899C42.8209 43.2651 42.4671 45.228 42.001 47.171ZM43.6063 31.9944C43.609 33.9378 43.5408 35.8796 43.4017 37.8198C41.6295 38.8868 39.7585 39.9286 37.8118 40.9284C35.8732 41.9241 33.9524 42.8391 32.0682 43.6673C30.0855 42.822 28.1409 41.911 26.2346 40.9345C24.3391 39.9638 22.4869 38.9302 20.6783 37.8337C20.513 35.894 20.4297 33.9509 20.4284 32.0042C20.4269 30.0589 20.5088 28.1162 20.6733 26.1749C22.445 25.0986 24.3024 24.0576 26.2228 23.0712C28.152 22.0802 30.0968 21.1691 32.0309 20.3433C33.9893 21.19 35.9123 22.0973 37.8 23.0654C39.6943 24.0339 41.5516 25.0565 43.3719 26.1331C43.5282 28.0839 43.6062 30.0377 43.6063 31.9944ZM47.0477 15.6974C53.9589 14.5015 59.1699 15.306 60.4753 17.3173C61.8659 19.4601 59.8729 24.1925 54.8861 29.1776C54.6105 29.4526 54.3245 29.729 54.0283 30.0063C51.5984 28.0523 49.0217 26.2478 46.3163 24.6052C46.0432 21.7539 45.556 18.9221 44.8578 16.1287C45.602 15.9658 46.3319 15.822 47.0477 15.6974ZM46.5806 28.1284C48.4055 29.3137 50.16 30.5825 51.8372 31.9295C50.1674 33.2987 48.4184 34.5893 46.5972 35.7961C46.653 34.5291 46.6804 33.2614 46.6795 31.9932C46.6789 30.7046 46.6459 29.4164 46.5806 28.1284ZM60.4944 46.6524C59.187 48.6721 54.1352 49.5143 47.3571 48.3735C46.5803 48.243 45.7833 48.0878 44.966 47.9077C45.6473 45.0783 46.113 42.2113 46.3597 39.3261C49.0606 37.6548 51.6291 35.8202 54.0469 33.8353C54.47 34.2263 54.8725 34.6155 55.2542 35.0028C57.4163 37.0942 59.1272 39.5215 60.3012 42.1639C60.6767 42.8606 60.8875 43.6183 60.9207 44.3904C60.954 45.1624 60.8089 45.9323 60.4944 46.6524Z" fill="#0ABEDE"/>
</svg>
