<svg width="68" height="66" viewBox="0 0 68 66" fill="none" xmlns="http://www.w3.org/2000/svg">
<rect x="27.5996" y="54.48" width="12.8" height="10.24" fill="#0ABEDE"/>
<rect x="1" y="1" width="66" height="54.48" rx="3" fill="#0ABEDE" stroke="#0ABEDE" stroke-width="2"/>
<path d="M2 42.96H66V52.48C66 53.5846 65.1046 54.48 64 54.48H4C2.89543 54.48 2 53.5846 2 52.48V42.96Z" fill="#0ABEDE"/>
<path d="M23.333 65H44.6663" stroke="#0ABEDE" stroke-width="2" stroke-linecap="round"/>
<circle cx="24" cy="23" r="16" fill="white"/>
<circle cx="45.333" cy="23" r="16" fill="white"/>
<rect x="29.7334" y="46.7998" width="8.53333" height="2.56" rx="1" fill="white"/>
<path d="M18.76 29.24C17.8427 29.24 17.0347 29.0533 16.336 28.68C15.6427 28.3067 15.0987 27.7813 14.704 27.104C14.3147 26.4267 14.12 25.632 14.12 24.72V17.496L16.072 17.48V24.672C16.072 25.104 16.144 25.4907 16.288 25.832C16.4373 26.1733 16.6373 26.464 16.888 26.704C17.1387 26.9387 17.4267 27.1173 17.752 27.24C18.0773 27.3627 18.4133 27.424 18.76 27.424C19.1173 27.424 19.456 27.3627 19.776 27.24C20.1013 27.112 20.3893 26.9307 20.64 26.696C20.8907 26.456 21.088 26.1653 21.232 25.824C21.376 25.4827 21.448 25.0987 21.448 24.672V17.48H23.4V24.72C23.4 25.632 23.2027 26.4267 22.808 27.104C22.4187 27.7813 21.8747 28.3067 21.176 28.68C20.4827 29.0533 19.6773 29.24 18.76 29.24ZM25.9556 29V17.48H27.8836V29H25.9556Z" fill="#0ABEDE"/>
<path d="M39.76 29.24C38.8427 29.24 38.0347 29.0533 37.336 28.68C36.6427 28.3067 36.0987 27.7813 35.704 27.104C35.3147 26.4267 35.12 25.632 35.12 24.72V17.496L37.072 17.48V24.672C37.072 25.104 37.144 25.4907 37.288 25.832C37.4373 26.1733 37.6373 26.464 37.888 26.704C38.1387 26.9387 38.4267 27.1173 38.752 27.24C39.0773 27.3627 39.4133 27.424 39.76 27.424C40.1173 27.424 40.456 27.3627 40.776 27.24C41.1013 27.112 41.3893 26.9307 41.64 26.696C41.8907 26.456 42.088 26.1653 42.232 25.824C42.376 25.4827 42.448 25.0987 42.448 24.672V17.48H44.4V24.72C44.4 25.632 44.2027 26.4267 43.808 27.104C43.4187 27.7813 42.8747 28.3067 42.176 28.68C41.4827 29.0533 40.6773 29.24 39.76 29.24ZM45.8356 29L49.7396 23.176L45.9476 17.48H48.3076L50.9316 21.536L53.5316 17.48H55.9076L52.1156 23.176L56.0036 29H53.6436L50.9316 24.816L48.2116 29H45.8356Z" fill="#0ABEDE"/>
</svg>
