<svg width="1440" height="750" viewBox="0 0 1440 750" fill="none" xmlns="http://www.w3.org/2000/svg">
<path d="M100.369 656.488C16.3643 652.293 -1.4836 625.609 0.0930671 612.791L0.0930671 0L1439.91 0V612.791C1441.48 625.609 1423.64 652.293 1339.63 656.488C1234.62 661.732 1237.46 680.084 1221.38 694.942C1205.3 709.799 1179.76 724.656 1089.89 712.857C1000.02 701.059 912.038 697.126 844.872 725.093C791.139 747.466 739.125 750 720 750C700.875 750 648.861 747.466 595.128 725.093C527.962 697.126 439.984 701.059 350.113 712.857C260.243 724.656 234.701 709.799 218.619 694.942C202.537 680.084 205.375 661.732 100.369 656.488Z" fill="url(#paint0_linear_1127_4976)"/>
<defs>
<linearGradient id="paint0_linear_1127_4976" x1="-4.09559e-05" y1="29.9261" x2="1779.69" y2="590.484" gradientUnits="userSpaceOnUse">
<stop stop-color="#049CF2"/>
<stop offset="0.505208" stop-color="#37ACDE"/>
<stop offset="1" stop-color="#00B6C2"/>
</linearGradient>
</defs>
</svg>
